<svg width="30" height="30" viewBox="0 0 30 30" fill="none" xmlns="http://www.w3.org/2000/svg">
<g clip-path="url(#clip0_127_624)">
<path d="M30 12.5V30H0V12.5H30ZM30 10V6.25C30 5.25544 29.6049 4.30161 28.9017 3.59835C28.1984 2.89509 27.2446 2.5 26.25 2.5H22.5V0H20V2.5H10V0H7.5V2.5H3.75C2.75544 2.5 1.80161 2.89509 1.09835 3.59835C0.395088 4.30161 0 5.25544 0 6.25L0 10H30ZM22.5 17.5H20V20H22.5V17.5ZM16.25 17.5H13.75V20H16.25V17.5ZM10 17.5H7.5V20H10V17.5ZM22.5 22.5H20V25H22.5V22.5ZM16.25 22.5H13.75V25H16.25V22.5ZM10 22.5H7.5V25H10V22.5Z" fill="#009BB5"/>
</g>
<defs>
<clipPath id="clip0_127_624">
<rect width="30" height="30" fill="white"/>
</clipPath>
</defs>
</svg>
