<svg width="158" height="39" viewBox="0 0 158 39" fill="none" xmlns="http://www.w3.org/2000/svg">
<path d="M17.2736 38.5512C11.8656 38.5512 7.73763 37.0472 4.88963 34.0392C2.07363 31.0311 0.665625 26.7592 0.665625 21.2232C0.665625 18.4711 1.09763 16.0231 1.96163 13.8792C2.82563 11.7031 4.00963 9.87915 5.51363 8.40715C7.01763 6.90315 8.80963 5.76715 10.8896 4.99915C12.9696 4.23115 15.2256 3.84715 17.6576 3.84715C19.0656 3.84715 20.3456 3.95915 21.4976 4.18315C22.6496 4.37515 23.6576 4.61515 24.5216 4.90315C25.3856 5.15915 26.1056 5.43115 26.6816 5.71915C27.2576 6.00715 27.6736 6.23115 27.9296 6.39115L25.7696 12.4391C24.7456 11.8951 23.5456 11.4311 22.1696 11.0471C20.8256 10.6631 19.2896 10.4711 17.5616 10.4711C16.4096 10.4711 15.2736 10.6631 14.1536 11.0471C13.0656 11.4311 12.0896 12.0551 11.2256 12.9191C10.3936 13.7511 9.72163 14.8391 9.20963 16.1831C8.69763 17.5271 8.44163 19.1591 8.44163 21.0791C8.44163 22.6151 8.60163 24.0551 8.92163 25.3991C9.27363 26.7111 9.81763 27.8471 10.5536 28.8071C11.3216 29.7671 12.3136 30.5352 13.5296 31.1112C14.7456 31.6552 16.2176 31.9272 17.9456 31.9272C19.0336 31.9272 20.0096 31.8632 20.8736 31.7352C21.7376 31.6072 22.5056 31.4632 23.1776 31.3031C23.8496 31.1112 24.4416 30.9032 24.9536 30.6792C25.4656 30.4552 25.9296 30.2472 26.3456 30.0552L28.4096 36.0552C27.3536 36.6952 25.8656 37.2712 23.9456 37.7832C22.0256 38.2952 19.8016 38.5512 17.2736 38.5512ZM32.7506 37.8792V1.78315L39.9026 0.631149V12.7271C40.3826 12.5671 40.9906 12.4231 41.7266 12.2951C42.4946 12.1351 43.2306 12.0551 43.9346 12.0551C45.9826 12.0551 47.6786 12.3431 49.0226 12.9191C50.3986 13.4631 51.4866 14.2471 52.2866 15.2711C53.1186 16.2951 53.6946 17.5111 54.0146 18.9191C54.3666 20.3271 54.5426 21.8951 54.5426 23.6231V37.8792H47.3906V24.4871C47.3906 22.1831 47.0866 20.5511 46.4786 19.5911C45.9026 18.6311 44.8146 18.1511 43.2146 18.1511C42.5746 18.1511 41.9666 18.2151 41.3906 18.3432C40.8466 18.4391 40.3506 18.5511 39.9026 18.6792V37.8792H32.7506ZM59.8163 25.4472C59.8163 23.2071 60.1523 21.2551 60.8242 19.5911C61.5283 17.8951 62.4403 16.4871 63.5603 15.3671C64.6803 14.2471 65.9603 13.3991 67.4003 12.8231C68.8723 12.2471 70.3763 11.9591 71.9123 11.9591C75.4963 11.9591 78.3283 13.0631 80.4083 15.2711C82.4883 17.4471 83.5283 20.6631 83.5283 24.9191C83.5283 25.3352 83.5123 25.7992 83.4803 26.3111C83.4483 26.7911 83.4163 27.2231 83.3843 27.6071H67.1603C67.3203 29.0791 68.0083 30.2471 69.2243 31.1112C70.4403 31.9752 72.0723 32.4072 74.1203 32.4072C75.4323 32.4072 76.7123 32.2952 77.9603 32.0712C79.2403 31.8152 80.2803 31.5112 81.0803 31.1592L82.0403 36.9672C81.6563 37.1592 81.1443 37.3512 80.5043 37.5432C79.8643 37.7352 79.1443 37.8952 78.3443 38.0232C77.5763 38.1832 76.7443 38.3112 75.8483 38.4072C74.9523 38.5032 74.0563 38.5512 73.1603 38.5512C70.8883 38.5512 68.9043 38.2152 67.2083 37.5432C65.5443 36.8712 64.1523 35.9592 63.0323 34.8072C61.9443 33.6232 61.1283 32.2312 60.5843 30.6312C60.0723 29.0312 59.8163 27.3032 59.8163 25.4472ZM76.6163 22.7111C76.5843 22.1031 76.4723 21.5111 76.2803 20.9351C76.1203 20.3591 75.8483 19.8471 75.4643 19.3991C75.1123 18.9511 74.6483 18.5831 74.0723 18.2951C73.5283 18.0071 72.8403 17.8631 72.0083 17.8631C71.2083 17.8631 70.5203 18.0071 69.9443 18.2951C69.3683 18.5511 68.8883 18.9032 68.5043 19.3512C68.1203 19.7991 67.8163 20.3271 67.5923 20.9351C67.4003 21.5111 67.2563 22.1031 67.1603 22.7111H76.6163ZM87.8475 25.2551C87.8475 23.4311 88.1355 21.7191 88.7115 20.1192C89.3195 18.4871 90.1835 17.0791 91.3035 15.8951C92.4235 14.6791 93.7835 13.7191 95.3835 13.0152C96.9835 12.3111 98.8075 11.9591 100.856 11.9591C102.2 11.9591 103.432 12.0871 104.552 12.3432C105.672 12.5671 106.76 12.9031 107.816 13.3511L106.328 19.0631C105.656 18.8071 104.92 18.5831 104.12 18.3911C103.32 18.1991 102.424 18.1031 101.432 18.1031C99.3195 18.1031 97.7355 18.7591 96.6795 20.0711C95.6555 21.3831 95.1435 23.1111 95.1435 25.2551C95.1435 27.5272 95.6235 29.2872 96.5835 30.5351C97.5755 31.7831 99.2875 32.4072 101.72 32.4072C102.584 32.4072 103.512 32.3272 104.504 32.1672C105.496 32.0072 106.408 31.7512 107.24 31.3992L108.248 37.2552C107.416 37.6072 106.376 37.9112 105.128 38.1672C103.88 38.4232 102.504 38.5512 101 38.5512C98.6955 38.5512 96.7115 38.2152 95.0475 37.5432C93.3835 36.8392 92.0075 35.8952 90.9195 34.7112C89.8635 33.5272 89.0795 32.1351 88.5675 30.5351C88.0875 28.9031 87.8475 27.1431 87.8475 25.2551ZM120.2 21.7511C120.904 20.9831 121.624 20.1831 122.359 19.3512C123.128 18.5191 123.864 17.7031 124.568 16.9032C125.272 16.0711 125.928 15.2871 126.536 14.5511C127.176 13.8151 127.72 13.1751 128.168 12.6311H136.664C134.968 14.5831 133.304 16.4551 131.672 18.2471C130.072 20.0072 128.312 21.8312 126.392 23.7191C127.352 24.5831 128.344 25.6232 129.368 26.8392C130.392 28.0232 131.384 29.2552 132.344 30.5351C133.304 31.8152 134.184 33.0952 134.984 34.3752C135.784 35.6552 136.456 36.8232 137 37.8792H128.792C128.28 37.0472 127.688 36.1352 127.016 35.1432C126.376 34.1192 125.688 33.1112 124.952 32.1192C124.216 31.0951 123.432 30.1191 122.6 29.1911C121.8 28.2631 121 27.4792 120.2 26.8392V37.8792H113.048V1.78315L120.2 0.631149V21.7511ZM156.06 18.9671C155.42 18.8071 154.668 18.6471 153.804 18.4871C152.94 18.2951 152.012 18.1991 151.02 18.1991C150.572 18.1991 150.028 18.2471 149.388 18.3432C148.78 18.4071 148.316 18.4871 147.996 18.5831V37.8792H140.844V13.9751C142.124 13.5271 143.628 13.1111 145.356 12.7271C147.116 12.3111 149.068 12.1032 151.212 12.1032C151.596 12.1032 152.06 12.1351 152.604 12.1991C153.148 12.2311 153.692 12.2951 154.236 12.3911C154.78 12.4551 155.324 12.5511 155.868 12.6791C156.412 12.7751 156.876 12.9031 157.26 13.0631L156.06 18.9671Z" fill="#009BB5"/>
</svg>
