<svg width="30" height="30" viewBox="0 0 30 30" fill="none" xmlns="http://www.w3.org/2000/svg">
<g clip-path="url(#clip0_127_626)">
<path d="M15.0002 0.0262489C11.6644 0.0302193 8.46647 1.35719 6.10785 3.71604C3.74923 6.07489 2.42258 9.273 2.41895 12.6087C2.41895 19.2012 12.6264 28.02 13.7939 29.005L15.0027 30.0262L16.2114 29.005C17.3764 28.02 27.5864 19.2012 27.5864 12.6087C27.5828 9.27213 26.2555 6.07327 23.8958 3.71427C21.5361 1.35528 18.3368 0.0288958 15.0002 0.0262489ZM15.0002 25.08C11.1689 21.59 6.16645 15.92 6.16645 12.6087C6.16645 10.2659 7.09714 8.01899 8.75379 6.36234C10.4104 4.70569 12.6573 3.775 15.0002 3.775C17.3431 3.775 19.59 4.70569 21.2466 6.36234C22.9032 8.01899 23.8339 10.2659 23.8339 12.6087C23.8339 15.9137 18.8302 21.5862 15.0002 25.08Z" fill="#009BB5"/>
<path d="M15.0002 16.2487C17.0692 16.2487 18.7464 14.5715 18.7464 12.5025C18.7464 10.4335 17.0692 8.75625 15.0002 8.75625C12.9312 8.75625 11.2539 10.4335 11.2539 12.5025C11.2539 14.5715 12.9312 16.2487 15.0002 16.2487Z" fill="#009BB5"/>
</g>
<defs>
<clipPath id="clip0_127_626">
<rect width="30" height="30" fill="white"/>
</clipPath>
</defs>
</svg>
