<svg width="30" height="30" viewBox="0 0 30 30" fill="none" xmlns="http://www.w3.org/2000/svg">
<g clip-path="url(#clip0_129_655)">
<path d="M16.25 1.25001C16.25 0.918492 16.3817 0.60055 16.6161 0.366129C16.8505 0.131709 17.1685 1.2567e-05 17.5 1.2567e-05C20.8141 0.00365206 23.9914 1.32178 26.3348 3.6652C28.6782 6.00861 29.9963 9.18592 30 12.5C30 12.8315 29.8683 13.1495 29.6339 13.3839C29.3994 13.6183 29.0815 13.75 28.75 13.75C28.4185 13.75 28.1005 13.6183 27.8661 13.3839C27.6317 13.1495 27.5 12.8315 27.5 12.5C27.497 9.84876 26.4425 7.30695 24.5678 5.43223C22.693 3.55751 20.1512 2.50299 17.5 2.50001C17.1685 2.50001 16.8505 2.36832 16.6161 2.1339C16.3817 1.89948 16.25 1.58153 16.25 1.25001ZM17.5 7.50001C18.8261 7.50001 20.0978 8.0268 21.0355 8.96448C21.9732 9.90216 22.5 11.1739 22.5 12.5C22.5 12.8315 22.6317 13.1495 22.8661 13.3839C23.1005 13.6183 23.4185 13.75 23.75 13.75C24.0815 13.75 24.3994 13.6183 24.6339 13.3839C24.8683 13.1495 25 12.8315 25 12.5C24.998 10.5115 24.2072 8.605 22.8011 7.1989C21.395 5.79281 19.4885 5.002 17.5 5.00001C17.1685 5.00001 16.8505 5.13171 16.6161 5.36613C16.3817 5.60055 16.25 5.91849 16.25 6.25001C16.25 6.58153 16.3817 6.89948 16.6161 7.1339C16.8505 7.36832 17.1685 7.50001 17.5 7.50001ZM28.8662 20.9238C29.5906 21.6502 29.9974 22.6342 29.9974 23.66C29.9974 24.6859 29.5906 25.6699 28.8662 26.3963L27.7287 27.7075C17.4912 37.5088 -7.42127 12.6025 2.22873 2.33251L3.66623 1.08251C4.39344 0.378359 5.36865 -0.0111761 6.38086 -0.00181888C7.39308 0.00753832 8.36091 0.415036 9.07498 1.13251C9.11373 1.17126 11.43 4.18001 11.43 4.18001C12.1173 4.90205 12.4999 5.86117 12.4982 6.85802C12.4966 7.85486 12.1109 8.81273 11.4212 9.53251L9.97373 11.3525C10.7748 13.2989 11.9526 15.0678 13.4394 16.5576C14.9262 18.0474 16.6927 19.2288 18.6375 20.0338L20.4687 18.5775C21.1886 17.8884 22.1463 17.5031 23.1429 17.5017C24.1394 17.5003 25.0982 17.8829 25.82 18.57C25.82 18.57 28.8275 20.885 28.8662 20.9238ZM27.1462 22.7413C27.1462 22.7413 24.155 20.44 24.1162 20.4013C23.8587 20.1459 23.5107 20.0027 23.1481 20.0027C22.7855 20.0027 22.4375 20.1459 22.18 20.4013C22.1462 20.4363 19.625 22.445 19.625 22.445C19.4551 22.5802 19.2529 22.6689 19.0383 22.7022C18.8237 22.7355 18.6041 22.7124 18.4012 22.635C15.8818 21.697 13.5934 20.2284 11.691 18.3289C9.78865 16.4293 8.31673 14.1431 7.37498 11.625C7.29148 11.4193 7.26426 11.1951 7.29611 10.9754C7.32797 10.7557 7.41775 10.5485 7.55623 10.375C7.55623 10.375 9.56498 7.85251 9.59873 7.82001C9.85407 7.56249 9.99733 7.21453 9.99733 6.85189C9.99733 6.48924 9.85407 6.14128 9.59873 5.88376C9.55998 5.84626 7.25873 2.85251 7.25873 2.85251C6.99736 2.61815 6.65624 2.49263 6.30529 2.5017C5.95435 2.51076 5.62016 2.65372 5.37123 2.90126L3.93373 4.15126C-3.11877 12.6313 18.47 33.0225 25.9012 26L27.04 24.6875C27.3068 24.4403 27.4671 24.0991 27.4869 23.7359C27.5068 23.3727 27.3846 23.016 27.1462 22.7413Z" fill="#009BB5"/>
</g>
<defs>
<clipPath id="clip0_129_655">
<rect width="30" height="30" fill="white"/>
</clipPath>
</defs>
</svg>
