<svg width="30" height="30" viewBox="0 0 30 30" fill="none" xmlns="http://www.w3.org/2000/svg">
<g clip-path="url(#clip0_125_564)">
<path d="M23.75 1.25H6.25C4.59301 1.25198 3.00445 1.9111 1.83277 3.08277C0.661102 4.25445 0.00198482 5.84301 0 7.5L0 22.5C0.00198482 24.157 0.661102 25.7456 1.83277 26.9172C3.00445 28.0889 4.59301 28.748 6.25 28.75H23.75C25.407 28.748 26.9956 28.0889 28.1672 26.9172C29.3389 25.7456 29.998 24.157 30 22.5V7.5C29.998 5.84301 29.3389 4.25445 28.1672 3.08277C26.9956 1.9111 25.407 1.25198 23.75 1.25ZM6.25 3.75H23.75C24.4985 3.75147 25.2294 3.97689 25.8487 4.39725C26.468 4.81762 26.9473 5.41368 27.225 6.10875L17.6525 15.6825C16.948 16.3841 15.9943 16.7781 15 16.7781C14.0057 16.7781 13.052 16.3841 12.3475 15.6825L2.775 6.10875C3.05269 5.41368 3.53202 4.81762 4.15131 4.39725C4.7706 3.97689 5.50152 3.75147 6.25 3.75ZM23.75 26.25H6.25C5.25544 26.25 4.30161 25.8549 3.59835 25.1517C2.89509 24.4484 2.5 23.4946 2.5 22.5V9.375L10.58 17.45C11.7533 18.6203 13.3428 19.2775 15 19.2775C16.6572 19.2775 18.2467 18.6203 19.42 17.45L27.5 9.375V22.5C27.5 23.4946 27.1049 24.4484 26.4017 25.1517C25.6984 25.8549 24.7446 26.25 23.75 26.25Z" fill="#009BB5"/>
</g>
<defs>
<clipPath id="clip0_125_564">
<rect width="30" height="30" fill="white"/>
</clipPath>
</defs>
</svg>
