<svg width="30" height="30" viewBox="0 0 30 30" fill="none" xmlns="http://www.w3.org/2000/svg">
<path d="M3.24114 3.125C3.24114 1.4 4.69317 0 6.48228 0C8.27139 0 9.72342 1.4 9.72342 3.125C9.72342 4.85 8.27139 6.25 6.48228 6.25C4.69317 6.25 3.24114 4.85 3.24114 3.125ZM12.9646 11.25V21.25H10.3717V30H7.77874V21.25H5.18583V30H2.59291V21.25H0V11.25C0 9.1875 1.75022 7.5 3.88937 7.5H9.07519C11.2143 7.5 12.9646 9.1875 12.9646 11.25ZM23.3362 6.25C25.1253 6.25 26.5774 4.85 26.5774 3.125C26.5774 1.4 25.1253 0 23.3362 0C21.5471 0 20.0951 1.4 20.0951 3.125C20.0951 4.85 21.5471 6.25 23.3362 6.25ZM27.2256 25V30H24.6327V25H22.0398V30H19.4468V25H16.6854L18.5264 10.7875C18.7727 8.9125 20.4322 7.5 22.3898 7.5H24.2956C26.2532 7.5 27.9127 8.9125 28.159 10.7875L30 25H27.2385H27.2256Z" fill="#009BB5"/>
</svg>
