<svg width="30" height="30" viewBox="0 0 30 30" fill="none" xmlns="http://www.w3.org/2000/svg">
<g clip-path="url(#clip0_125_557)">
<path d="M23.75 5H18.75V3.75C18.75 2.75544 18.3549 1.80161 17.6517 1.09835C16.9484 0.395088 15.9946 0 15 0C14.0054 0 13.0516 0.395088 12.3483 1.09835C11.6451 1.80161 11.25 2.75544 11.25 3.75V5H6.25C4.59301 5.00198 3.00445 5.6611 1.83277 6.83278C0.661102 8.00445 0.00198482 9.59301 0 11.25L0 23.75C0.00198482 25.407 0.661102 26.9956 1.83277 28.1672C3.00445 29.3389 4.59301 29.998 6.25 30H23.75C25.407 29.998 26.9956 29.3389 28.1672 28.1672C29.3389 26.9956 29.998 25.407 30 23.75V11.25C29.998 9.59301 29.3389 8.00445 28.1672 6.83278C26.9956 5.6611 25.407 5.00198 23.75 5ZM12.5 22.5C12.5 22.8315 12.3683 23.1495 12.1339 23.3839C11.8995 23.6183 11.5815 23.75 11.25 23.75H5C4.66848 23.75 4.35054 23.6183 4.11612 23.3839C3.8817 23.1495 3.75 22.8315 3.75 22.5V12.5C3.75 12.1685 3.8817 11.8505 4.11612 11.6161C4.35054 11.3817 4.66848 11.25 5 11.25H11.25C11.5815 11.25 11.8995 11.3817 12.1339 11.6161C12.3683 11.8505 12.5 12.1685 12.5 12.5V22.5ZM15 7.5C14.6685 7.5 14.3505 7.3683 14.1161 7.13388C13.8817 6.89946 13.75 6.58152 13.75 6.25V3.75C13.75 3.41848 13.8817 3.10054 14.1161 2.86612C14.3505 2.6317 14.6685 2.5 15 2.5C15.3315 2.5 15.6495 2.6317 15.8839 2.86612C16.1183 3.10054 16.25 3.41848 16.25 3.75V6.25C16.25 6.58152 16.1183 6.89946 15.8839 7.13388C15.6495 7.3683 15.3315 7.5 15 7.5ZM22.5 23.75H17.5C17.1685 23.75 16.8505 23.6183 16.6161 23.3839C16.3817 23.1495 16.25 22.8315 16.25 22.5C16.25 22.1685 16.3817 21.8505 16.6161 21.6161C16.8505 21.3817 17.1685 21.25 17.5 21.25H22.5C22.8315 21.25 23.1495 21.3817 23.3839 21.6161C23.6183 21.8505 23.75 22.1685 23.75 22.5C23.75 22.8315 23.6183 23.1495 23.3839 23.3839C23.1495 23.6183 22.8315 23.75 22.5 23.75ZM25 18.75H17.5C17.1685 18.75 16.8505 18.6183 16.6161 18.3839C16.3817 18.1495 16.25 17.8315 16.25 17.5C16.25 17.1685 16.3817 16.8505 16.6161 16.6161C16.8505 16.3817 17.1685 16.25 17.5 16.25H25C25.3315 16.25 25.6495 16.3817 25.8839 16.6161C26.1183 16.8505 26.25 17.1685 26.25 17.5C26.25 17.8315 26.1183 18.1495 25.8839 18.3839C25.6495 18.6183 25.3315 18.75 25 18.75ZM25 13.75H17.5C17.1685 13.75 16.8505 13.6183 16.6161 13.3839C16.3817 13.1495 16.25 12.8315 16.25 12.5C16.25 12.1685 16.3817 11.8505 16.6161 11.6161C16.8505 11.3817 17.1685 11.25 17.5 11.25H25C25.3315 11.25 25.6495 11.3817 25.8839 11.6161C26.1183 11.8505 26.25 12.1685 26.25 12.5C26.25 12.8315 26.1183 13.1495 25.8839 13.3839C25.6495 13.6183 25.3315 13.75 25 13.75ZM6.25 13.75H10V21.25H6.25V13.75Z" fill="#009BB5"/>
</g>
<defs>
<clipPath id="clip0_125_557">
<rect width="30" height="30" fill="white"/>
</clipPath>
</defs>
</svg>
