<svg width="30" height="30" viewBox="0 0 30 30" fill="none" xmlns="http://www.w3.org/2000/svg">
<g clip-path="url(#clip0_116_20)">
<path d="M23.75 10.3328V8.60859C23.75 6.36068 22.8281 4.20484 21.1872 2.61533C19.5462 1.02582 17.3206 0.132843 15 0.132843C12.6794 0.132843 10.4538 1.02582 8.81282 2.61533C7.17187 4.20484 6.25 6.36068 6.25 8.60859V10.3328C5.1367 10.8035 4.18912 11.5782 3.52312 12.5622C2.85713 13.5462 2.5016 14.6969 2.5 15.8735V23.1384C2.50198 24.7435 3.1611 26.2823 4.33277 27.4172C5.50445 28.5522 7.09301 29.1906 8.75 29.1925H21.25C22.907 29.1906 24.4956 28.5522 25.6672 27.4172C26.8389 26.2823 27.498 24.7435 27.5 23.1384V15.8735C27.4984 14.6969 27.1429 13.5462 26.4769 12.5622C25.8109 11.5782 24.8633 10.8035 23.75 10.3328ZM8.75 8.60859C8.75 7.00294 9.40848 5.46306 10.5806 4.32769C11.7527 3.19233 13.3424 2.55448 15 2.55448C16.6576 2.55448 18.2473 3.19233 19.4194 4.32769C20.5915 5.46306 21.25 7.00294 21.25 8.60859V9.81941H8.75V8.60859ZM25 23.1384C25 24.1018 24.6049 25.0258 23.9017 25.707C23.1984 26.3882 22.2446 26.7709 21.25 26.7709H8.75C7.75544 26.7709 6.80161 26.3882 6.09835 25.707C5.39509 25.0258 5 24.1018 5 23.1384V15.8735C5 14.9101 5.39509 13.9862 6.09835 13.305C6.80161 12.6238 7.75544 12.2411 8.75 12.2411H21.25C22.2446 12.2411 23.1984 12.6238 23.9017 13.305C24.6049 13.9862 25 14.9101 25 15.8735V23.1384Z" fill="#009BB5"/>
<path d="M15 17.0843C14.6685 17.0843 14.3505 17.2119 14.1161 17.439C13.8817 17.666 13.75 17.974 13.75 18.2952V20.7168C13.75 21.0379 13.8817 21.3459 14.1161 21.573C14.3505 21.8001 14.6685 21.9276 15 21.9276C15.3315 21.9276 15.6495 21.8001 15.8839 21.573C16.1183 21.3459 16.25 21.0379 16.25 20.7168V18.2952C16.25 17.974 16.1183 17.666 15.8839 17.439C15.6495 17.2119 15.3315 17.0843 15 17.0843Z" fill="#009BB5"/>
</g>
<defs>
<clipPath id="clip0_116_20">
<rect width="30" height="29.0597" fill="white" transform="translate(0 0.132843)"/>
</clipPath>
</defs>
</svg>
