<svg width="30" height="30" viewBox="0 0 30 30" fill="none" xmlns="http://www.w3.org/2000/svg">
<g clip-path="url(#clip0_137_1027)">
<path d="M15 20C16.035 20 16.875 20.84 16.875 21.875C16.875 22.91 16.035 23.75 15 23.75C13.965 23.75 13.125 22.91 13.125 21.875C13.125 20.84 13.965 20 15 20ZM16.25 17.5C16.25 16.7987 16.76 15.9688 17.41 15.61C19.285 14.5763 20.2938 12.4563 19.9212 10.3325C19.5675 8.315 17.9112 6.66 15.895 6.3075C14.4225 6.05125 12.9212 6.445 11.7863 7.39875C10.6512 8.3525 10 9.7475 10 11.2288C10 11.9187 10.56 12.4788 11.25 12.4788C11.94 12.4788 12.5 11.9187 12.5 11.2288C12.5 10.4887 12.8263 9.79 13.3938 9.3125C13.97 8.8275 14.705 8.635 15.4638 8.76875C16.4475 8.94125 17.2862 9.78 17.4587 10.7638C17.65 11.8512 17.1575 12.8938 16.2038 13.42C14.7587 14.2163 13.75 15.8938 13.75 17.5C13.75 18.1912 14.31 18.75 15 18.75C15.69 18.75 16.25 18.1912 16.25 17.5ZM30 23.75V6.25C30 2.80375 27.1963 0 23.75 0H6.25C2.80375 0 0 2.80375 0 6.25V23.75C0 27.1963 2.80375 30 6.25 30H23.75C27.1963 30 30 27.1963 30 23.75ZM23.75 2.5C25.8175 2.5 27.5 4.1825 27.5 6.25V23.75C27.5 25.8175 25.8175 27.5 23.75 27.5H6.25C4.1825 27.5 2.5 25.8175 2.5 23.75V6.25C2.5 4.1825 4.1825 2.5 6.25 2.5H23.75Z" fill="#009BB5"/>
</g>
<defs>
<clipPath id="clip0_137_1027">
<rect width="30" height="30" fill="white"/>
</clipPath>
</defs>
</svg>
