<svg width="30" height="30" viewBox="0 0 30 30" fill="none" xmlns="http://www.w3.org/2000/svg">
<g clip-path="url(#clip0_129_652)">
<path d="M5 7.50001C4.50719 7.5013 4.01902 7.40486 3.56372 7.21626C3.10843 7.02766 2.69505 6.75065 2.3475 6.40126L0.417503 4.68376C0.169857 4.46297 0.0200638 4.15284 0.00107571 3.8216C-0.0179123 3.49037 0.0954603 3.16515 0.316253 2.91751C0.537046 2.66986 0.847172 2.52007 1.17841 2.50108C1.50964 2.48209 1.83486 2.59546 2.0825 2.81626L4.06375 4.58376C4.17717 4.71113 4.31546 4.81394 4.4701 4.88587C4.62474 4.9578 4.79246 4.99732 4.96295 5.002C5.13344 5.00669 5.30308 4.97643 5.46143 4.9131C5.61979 4.84977 5.76351 4.75471 5.88375 4.63376L10.3888 0.345007C10.631 0.129345 10.9476 0.0162812 11.2716 0.0296962C11.5957 0.0431112 11.9018 0.181955 12.1254 0.416901C12.349 0.651847 12.4725 0.9645 12.4699 1.28882C12.4672 1.61314 12.3386 1.92374 12.1113 2.15501L7.625 6.42251C7.27972 6.76578 6.87016 7.03763 6.41974 7.22252C5.96933 7.4074 5.48689 7.5017 5 7.50001ZM30 5.00001C30 4.66849 29.8683 4.35054 29.6339 4.11612C29.3995 3.8817 29.0815 3.75001 28.75 3.75001H16.25C15.9185 3.75001 15.6005 3.8817 15.3661 4.11612C15.1317 4.35054 15 4.66849 15 5.00001C15 5.33153 15.1317 5.64947 15.3661 5.88389C15.6005 6.11831 15.9185 6.25001 16.25 6.25001H28.75C29.0815 6.25001 29.3995 6.11831 29.6339 5.88389C29.8683 5.64947 30 5.33153 30 5.00001ZM7.625 16.4225L12.1113 12.155C12.2365 12.0435 12.338 11.908 12.4097 11.7565C12.4815 11.605 12.5221 11.4406 12.529 11.2731C12.5359 11.1056 12.5091 10.9384 12.4501 10.7815C12.3911 10.6246 12.3011 10.4811 12.1856 10.3597C12.07 10.2382 11.9312 10.1413 11.7774 10.0746C11.6236 10.0079 11.4579 9.9728 11.2903 9.97143C11.1226 9.97006 10.9564 10.0024 10.8016 10.0666C10.6467 10.1308 10.5063 10.2255 10.3888 10.345L5.88875 14.6338C5.65079 14.8613 5.33424 14.9883 5.005 14.9883C4.67577 14.9883 4.35921 14.8613 4.12125 14.6338L2.13375 12.6525C1.898 12.4248 1.58225 12.2988 1.2545 12.3017C0.926756 12.3045 0.61324 12.436 0.38148 12.6677C0.14972 12.8995 0.0182585 13.213 0.0154105 13.5408C0.0125625 13.8685 0.138556 14.1843 0.366253 14.42L2.3475 16.4013C3.04709 17.101 3.9949 17.4959 4.98438 17.4999C5.97385 17.5039 6.92481 17.1166 7.63 16.4225H7.625ZM30 15C30 14.6685 29.8683 14.3505 29.6339 14.1161C29.3995 13.8817 29.0815 13.75 28.75 13.75H16.25C15.9185 13.75 15.6005 13.8817 15.3661 14.1161C15.1317 14.3505 15 14.6685 15 15C15 15.3315 15.1317 15.6495 15.3661 15.8839C15.6005 16.1183 15.9185 16.25 16.25 16.25H28.75C29.0815 16.25 29.3995 16.1183 29.6339 15.8839C29.8683 15.6495 30 15.3315 30 15ZM7.625 26.4225L12.1063 22.155C12.2315 22.0435 12.333 21.908 12.4047 21.7565C12.4765 21.605 12.5171 21.4406 12.524 21.2731C12.5309 21.1056 12.5041 20.9384 12.4451 20.7815C12.3861 20.6246 12.2961 20.4811 12.1806 20.3597C12.065 20.2382 11.9262 20.1413 11.7724 20.0746C11.6186 20.0079 11.4529 19.9728 11.2853 19.9714C11.1176 19.9701 10.9514 20.0024 10.7966 20.0666C10.6417 20.1308 10.5013 20.2255 10.3838 20.345L5.88375 24.6338C5.76351 24.7547 5.61979 24.8498 5.46143 24.9131C5.30308 24.9764 5.13344 25.0067 4.96295 25.002C4.79246 24.9973 4.62474 24.9578 4.4701 24.8859C4.31546 24.8139 4.17717 24.7111 4.06375 24.5838L2.0825 22.8163C1.83486 22.5955 1.50964 22.4821 1.17841 22.5011C0.847172 22.5201 0.537046 22.6699 0.316253 22.9175C0.0954603 23.1652 -0.0179123 23.4904 0.00107571 23.8216C0.0200638 24.1528 0.169857 24.463 0.417503 24.6838L2.3475 26.4013C3.04709 27.101 3.9949 27.4959 4.98438 27.4999C5.97385 27.5039 6.92481 27.1166 7.63 26.4225H7.625ZM30 25C30 24.6685 29.8683 24.3505 29.6339 24.1161C29.3995 23.8817 29.0815 23.75 28.75 23.75H16.25C15.9185 23.75 15.6005 23.8817 15.3661 24.1161C15.1317 24.3505 15 24.6685 15 25C15 25.3315 15.1317 25.6495 15.3661 25.8839C15.6005 26.1183 15.9185 26.25 16.25 26.25H28.75C29.0815 26.25 29.3995 26.1183 29.6339 25.8839C29.8683 25.6495 30 25.3315 30 25Z" fill="#009BB5"/>
</g>
<defs>
<clipPath id="clip0_129_652">
<rect width="30" height="30" fill="white"/>
</clipPath>
</defs>
</svg>
