<svg width="30" height="30" viewBox="0 0 30 30" fill="none" xmlns="http://www.w3.org/2000/svg">
<path d="M26.485 15C26.4847 14.3103 26.4214 13.6221 26.2958 12.9437L30.1338 10.75L26.3501 4.25L22.5108 6.44875C21.4508 5.54991 20.2327 4.85242 18.9175 4.39125V0H11.3501V4.39125C10.0349 4.85242 8.81678 5.54991 7.75676 6.44875L3.91753 4.25L0.133789 10.75L3.97176 12.9437C3.71965 14.3032 3.71965 15.6968 3.97176 17.0563L0.133789 19.25L3.91753 25.75L7.75676 23.5525C8.81688 24.4509 10.035 25.148 11.3501 25.6087V30H18.9175V25.6087C20.2327 25.1476 21.4508 24.4501 22.5108 23.5513L26.3501 25.75L30.1338 19.25L26.2958 17.0563C26.4214 16.3779 26.4847 15.6897 26.485 15ZM18.9175 15C18.9175 15.7417 18.6956 16.4667 18.2799 17.0834C17.8641 17.7001 17.2732 18.1807 16.5818 18.4645C15.8904 18.7484 15.1296 18.8226 14.3956 18.6779C13.6616 18.5333 12.9874 18.1761 12.4583 17.6517C11.9291 17.1272 11.5688 16.459 11.4228 15.7316C11.2768 15.0042 11.3517 14.2502 11.6381 13.5649C11.9245 12.8797 12.4094 12.294 13.0317 11.882C13.6539 11.4699 14.3854 11.25 15.1338 11.25C16.1373 11.25 17.0997 11.6451 17.8093 12.3483C18.5189 13.0516 18.9175 14.0054 18.9175 15Z" fill="#009BB5"/>
</svg>
