<svg width="30" height="30" viewBox="0 0 30 30" fill="none" xmlns="http://www.w3.org/2000/svg">
<g clip-path="url(#clip0_236_2)">
<path d="M13.1797 8.75H28.1797C28.677 8.75 29.1539 8.55246 29.5055 8.20083C29.8571 7.84919 30.0547 7.37228 30.0547 6.875C30.0547 6.37772 29.8571 5.90081 29.5055 5.54917C29.1539 5.19754 28.677 5 28.1797 5H13.1797C12.6824 5 12.2055 5.19754 11.8539 5.54917C11.5022 5.90081 11.3047 6.37772 11.3047 6.875C11.3047 7.37228 11.5022 7.84919 11.8539 8.20083C12.2055 8.55246 12.6824 8.75 13.1797 8.75Z" fill="#009BB5"/>
<path d="M28.1797 13.75H13.1797C12.6824 13.75 12.2055 13.9475 11.8539 14.2992C11.5022 14.6508 11.3047 15.1277 11.3047 15.625C11.3047 16.1223 11.5022 16.5992 11.8539 16.9508C12.2055 17.3025 12.6824 17.5 13.1797 17.5H28.1797C28.677 17.5 29.1539 17.3025 29.5055 16.9508C29.8571 16.5992 30.0547 16.1223 30.0547 15.625C30.0547 15.1277 29.8571 14.6508 29.5055 14.2992C29.1539 13.9475 28.677 13.75 28.1797 13.75Z" fill="#009BB5"/>
<path d="M28.1797 22.5H13.1797C12.6824 22.5 12.2055 22.6975 11.8539 23.0492C11.5022 23.4008 11.3047 23.8777 11.3047 24.375C11.3047 24.8723 11.5022 25.3492 11.8539 25.7008C12.2055 26.0525 12.6824 26.25 13.1797 26.25H28.1797C28.677 26.25 29.1539 26.0525 29.5055 25.7008C29.8571 25.3492 30.0547 24.8723 30.0547 24.375C30.0547 23.8777 29.8571 23.4008 29.5055 23.0492C29.1539 22.6975 28.677 22.5 28.1797 22.5Z" fill="#009BB5"/>
<path d="M6.41298 8.75C6.66016 8.74995 6.90179 8.67661 7.1073 8.53925C7.31281 8.4019 7.47299 8.20669 7.56757 7.97832C7.66216 7.74994 7.68692 7.49865 7.63871 7.25621C7.5905 7.01377 7.47149 6.79106 7.29673 6.61625L4.68923 4.00875C4.45482 3.77441 4.13693 3.64277 3.80548 3.64277C3.47402 3.64277 3.15614 3.77441 2.92173 4.00875L0.314226 6.61625C0.139464 6.79106 0.020456 7.01377 -0.0277534 7.25621C-0.0759629 7.49865 -0.0512092 7.74994 0.0433784 7.97832C0.137966 8.20669 0.29814 8.4019 0.503653 8.53925C0.709165 8.67661 0.950788 8.74995 1.19798 8.75H1.93048V22.5H1.19798C0.950788 22.5001 0.709165 22.5734 0.503653 22.7107C0.29814 22.8481 0.137966 23.0433 0.0433784 23.2717C-0.0512092 23.5001 -0.0759629 23.7513 -0.0277534 23.9938C0.020456 24.2362 0.139464 24.4589 0.314226 24.6338L2.87548 27.1937C3.10989 27.4281 3.42777 27.5597 3.75923 27.5597C4.09068 27.5597 4.40857 27.4281 4.64298 27.1937L7.20298 24.6338C7.37781 24.4589 7.49685 24.236 7.54502 23.9935C7.59319 23.7509 7.56833 23.4995 7.47359 23.2711C7.37884 23.0427 7.21847 22.8475 7.01277 22.7102C6.80707 22.573 6.56527 22.4998 6.31798 22.5H5.68048V8.75H6.41298Z" fill="#009BB5"/>
</g>
<defs>
<clipPath id="clip0_236_2">
<rect width="30" height="30" fill="white"/>
</clipPath>
</defs>
</svg>
