<svg width="30" height="30" viewBox="0 0 30 30" fill="none" xmlns="http://www.w3.org/2000/svg">
<g clip-path="url(#clip0_128_644)">
<path d="M29.9513 21.67C29.5363 17.9237 26.3538 15 22.5 15C13.1075 15.2425 12.3788 28.64 21.6225 29.9438C26.3313 30.5675 30.5413 26.3812 29.9513 21.6687V21.67ZM25 25C24.5112 25.4888 23.7213 25.4888 23.2325 25L21.6162 23.3838C21.3812 23.1488 21.25 22.8312 21.25 22.5V20C21.2575 18.365 23.7437 18.3662 23.75 20V21.9825L25 23.2325C25.4888 23.7213 25.4888 24.5112 25 25ZM22.5 12.5C25.4912 12.5 28.1675 13.82 30 15.9012V11.25C30 7.80375 27.1963 5 23.75 5H22.3738C21.7925 2.15125 19.2687 0 16.25 0H13.75C10.7325 0 8.2075 2.15125 7.62625 5H6.25C2.80375 5 0 7.80375 0 11.25V15H15.9012C17.6625 13.4487 19.9688 12.5 22.5 12.5ZM13.75 2.5H16.25C17.8775 2.5 19.2525 3.54875 19.77 5H10.2313C10.7488 3.54875 12.1238 2.5 13.7513 2.5H13.75ZM15.9012 30H6.25C2.80375 30 0 27.1963 0 23.75V17.5H13.8488C11.425 21.3862 12.4338 27.1562 15.9012 30Z" fill="#009BB5"/>
</g>
<defs>
<clipPath id="clip0_128_644">
<rect width="30" height="30" fill="white"/>
</clipPath>
</defs>
</svg>
