<svg width="30" height="31" viewBox="0 0 30 31" fill="none" xmlns="http://www.w3.org/2000/svg">
<g clip-path="url(#clip0_115_14)">
<path d="M15 15.4865C16.4834 15.4865 17.9334 15.0604 19.1668 14.2622C20.4001 13.4639 21.3614 12.3293 21.9291 11.0018C22.4968 9.67427 22.6453 8.21354 22.3559 6.80428C22.0665 5.39502 21.3522 4.10053 20.3033 3.08452C19.2544 2.0685 17.918 1.37658 16.4632 1.09626C15.0083 0.815943 13.5003 0.959813 12.1299 1.50968C10.7594 2.05954 9.58809 2.99071 8.76398 4.18542C7.93987 5.38013 7.5 6.78473 7.5 8.22159C7.50199 10.1478 8.2928 11.9945 9.69889 13.3565C11.105 14.7186 13.0115 15.4846 15 15.4865ZM15 3.37831C15.9889 3.37831 16.9556 3.66236 17.7779 4.19455C18.6001 4.72674 19.241 5.48316 19.6194 6.36815C19.9978 7.25314 20.0969 8.22697 19.9039 9.16647C19.711 10.106 19.2348 10.969 18.5355 11.6463C17.8363 12.3237 16.9454 12.7849 15.9755 12.9718C15.0055 13.1587 14.0002 13.0628 13.0866 12.6962C12.173 12.3296 11.3921 11.7089 10.8427 10.9124C10.2932 10.1159 10 9.1795 10 8.22159C10 6.93708 10.5268 5.70517 11.4645 4.79688C12.4021 3.88858 13.6739 3.37831 15 3.37831V3.37831Z" fill="#009BB5"/>
<path d="M15 17.9082C12.0173 17.9114 9.15777 19.0606 7.0487 21.1035C4.93964 23.1465 3.75331 25.9164 3.75 28.8056C3.75 29.1267 3.8817 29.4347 4.11612 29.6618C4.35054 29.8888 4.66848 30.0164 5 30.0164C5.33152 30.0164 5.64946 29.8888 5.88388 29.6618C6.1183 29.4347 6.25 29.1267 6.25 28.8056C6.25 26.5577 7.17187 24.4018 8.81282 22.8123C10.4538 21.2228 12.6794 20.3298 15 20.3298C17.3206 20.3298 19.5462 21.2228 21.1872 22.8123C22.8281 24.4018 23.75 26.5577 23.75 28.8056C23.75 29.1267 23.8817 29.4347 24.1161 29.6618C24.3505 29.8888 24.6685 30.0164 25 30.0164C25.3315 30.0164 25.6495 29.8888 25.8839 29.6618C26.1183 29.4347 26.25 29.1267 26.25 28.8056C26.2467 25.9164 25.0604 23.1465 22.9513 21.1035C20.8422 19.0606 17.9827 17.9114 15 17.9082V17.9082Z" fill="#009BB5"/>
</g>
<defs>
<clipPath id="clip0_115_14">
<rect width="30" height="29.0597" fill="white" transform="translate(0 0.956726)"/>
</clipPath>
</defs>
</svg>
